<?xml version="1.0" encoding="iso-8859-1"?>
<!-- Generator: Adobe Illustrator 19.0.0, SVG Export Plug-In . SVG Version: 6.00 Build 0)  -->
<svg version="1.1" id="Layer_1" xmlns="http://www.w3.org/2000/svg" xmlns:xlink="http://www.w3.org/1999/xlink" x="0px" y="0px"
	 viewBox="0 0 263.008 263.008" style="enable-background:new 0 0 263.008 263.008;" xml:space="preserve">
<g>
	<circle style="fill:#F59D00;" cx="131.504" cy="164.508" r="91"/>
	<g>
		<path style="fill:#30BAA1;" d="M131.504,53.429c12.131,4.034,26.038,1.232,35.693-8.423c9.656-9.656,12.458-23.562,8.423-35.693
			c-12.132-4.035-26.038-1.232-35.693,8.423S127.47,41.298,131.504,53.429z"/>
		<g>
			<path style="fill:#414042;" d="M139.004,66.292v-3.708c12.483,1.075,24.637-3.415,33.497-12.274
				c11.412-11.413,15.335-28.029,10.236-43.362c-0.746-2.244-2.507-4.005-4.75-4.751C162.65-2.9,146.038,1.02,134.623,12.433
				c-11.091,11.092-15.082,27.095-10.619,42.061v11.798c-50.823,3.845-91,46.426-91,98.216c0,54.313,44.187,98.5,98.5,98.5
				s98.5-44.187,98.5-98.5C230.004,112.718,189.827,70.136,139.004,66.292z M145.23,23.04c6.445-6.444,15.459-9.19,24.244-7.58
				c1.61,8.786-1.136,17.8-7.58,24.243c-6.443,6.444-15.459,9.188-24.243,7.58C136.04,38.497,138.786,29.483,145.23,23.04z
				 M131.504,248.008c-46.042,0-83.5-37.458-83.5-83.5c0-43.513,33.461-79.339,76-83.146v6.207c-3.788,1.493-7.1,4.104-9.45,7.583
				c-2.319,3.433-1.415,8.095,2.017,10.413c3.436,2.321,8.096,1.413,10.413-2.017c2.161-3.198,6.845-3.202,9.02-0.032
				c2.343,3.415,7.011,4.284,10.428,1.941c3.415-2.344,4.284-7.012,1.941-10.428c-2.343-3.415-5.625-5.981-9.368-7.457v-6.21
				c42.539,3.807,76,39.633,76,83.146C215.004,210.55,177.546,248.008,131.504,248.008z"/>
			<path style="fill:#414042;" d="M108.589,212.848c-13.349-6.357-23.577-18.054-28.063-32.091c-1.26-3.945-5.479-6.118-9.427-4.861
				c-3.945,1.262-6.121,5.482-4.861,9.428c5.742,17.967,18.828,32.936,35.902,41.067c3.737,1.781,8.215,0.195,9.996-3.547
				C113.916,219.105,112.328,214.629,108.589,212.848z"/>
		</g>
	</g>
</g>
<g>
</g>
<g>
</g>
<g>
</g>
<g>
</g>
<g>
</g>
<g>
</g>
<g>
</g>
<g>
</g>
<g>
</g>
<g>
</g>
<g>
</g>
<g>
</g>
<g>
</g>
<g>
</g>
<g>
</g>
</svg>
